<svg width="12" height="9" viewBox="0 0 12 9" fill="none" xmlns="http://www.w3.org/2000/svg">
<g clip-path="url(#clip0_422_167)">
<path d="M2.10487 8.95527V8.3596C2.10487 8.1312 1.96585 7.98232 1.72755 7.98232C1.60842 7.98232 1.47935 8.02203 1.38998 8.1511C1.32051 8.04188 1.22124 7.98232 1.07231 7.98232C0.972996 7.98232 0.87377 8.01208 0.794308 8.1213V8.00217H0.585815V8.95527H0.794308V8.42906C0.794308 8.26032 0.883675 8.18086 1.0227 8.18086C1.16163 8.18086 1.23119 8.27023 1.23119 8.42906V8.95527H1.43968V8.42906C1.43968 8.26032 1.53891 8.18086 1.66799 8.18086C1.80701 8.18086 1.87648 8.27023 1.87648 8.42906V8.95527H2.10487ZM5.1925 8.00217H4.85498V7.71426H4.64649V8.00217H4.45785V8.19077H4.64644V8.62765C4.64644 8.84609 4.73581 8.97512 4.97411 8.97512C5.06347 8.97512 5.1627 8.94536 5.23226 8.90566L5.17265 8.72692C5.11309 8.76663 5.04362 8.77658 4.99396 8.77658C4.89469 8.77658 4.85498 8.71702 4.85498 8.6177V8.19077H5.1925V8.00217ZM6.95976 7.98227C6.84063 7.98227 6.76122 8.04188 6.71156 8.1213V8.00217H6.50307V8.95527H6.71156V8.41916C6.71156 8.26032 6.78103 8.17096 6.9101 8.17096C6.94981 8.17096 6.99947 8.18091 7.03918 8.19081L7.09874 7.99227C7.05903 7.98232 6.99947 7.98232 6.95976 7.98232V7.98227ZM4.28907 8.08159C4.18975 8.01208 4.05077 7.98232 3.90184 7.98232C3.66359 7.98232 3.50476 8.10144 3.50476 8.29008C3.50476 8.44896 3.62388 8.53828 3.83237 8.56809L3.93164 8.57804C4.04087 8.59785 4.10043 8.62765 4.10043 8.67731C4.10043 8.74678 4.02101 8.79643 3.88199 8.79643C3.74301 8.79643 3.63379 8.74678 3.56427 8.69716L3.465 8.856C3.57422 8.93541 3.72315 8.97512 3.87204 8.97512C4.15004 8.97512 4.30892 8.84609 4.30892 8.66736C4.30892 8.49858 4.17985 8.40921 3.98126 8.37945L3.88199 8.3695C3.79262 8.35955 3.72315 8.33974 3.72315 8.28018C3.72315 8.21067 3.79262 8.17096 3.90184 8.17096C4.02101 8.17096 4.14014 8.22057 4.1997 8.25037L4.28907 8.08159ZM9.82904 7.98232C9.70987 7.98232 9.63046 8.04188 9.5808 8.1213V8.00217H9.3723V8.95527H9.5808V8.41916C9.5808 8.26032 9.65031 8.17096 9.77934 8.17096C9.81909 8.17096 9.86875 8.18091 9.90846 8.19081L9.96802 7.99227C9.92831 7.98232 9.86875 7.98232 9.82904 7.98232ZM7.16825 8.47872C7.16825 8.76663 7.3668 8.97512 7.6746 8.97512C7.81358 8.97512 7.91286 8.94536 8.01213 8.86595L7.91286 8.69716C7.83344 8.75673 7.75402 8.78649 7.66466 8.78649C7.49587 8.78649 7.37675 8.66736 7.37675 8.47872C7.37675 8.30003 7.49587 8.18086 7.66466 8.17096C7.75402 8.17096 7.83344 8.20072 7.91286 8.26032L8.01213 8.09154C7.91286 8.01208 7.81358 7.98232 7.6746 7.98232C7.3668 7.98232 7.16825 8.19081 7.16825 8.47872ZM9.09434 8.47872V8.00217H8.88585V8.1213C8.81634 8.03198 8.71707 7.98232 8.58799 7.98232C8.31994 7.98232 8.11144 8.19081 8.11144 8.47872C8.11144 8.76663 8.31994 8.97512 8.58799 8.97512C8.72697 8.97512 8.82629 8.92551 8.88585 8.83614V8.95527H9.09434V8.47872ZM8.32984 8.47872C8.32984 8.30994 8.43906 8.17096 8.61775 8.17096C8.78653 8.17096 8.90571 8.30003 8.90571 8.47872C8.90571 8.6475 8.78653 8.78649 8.61775 8.78649C8.43906 8.77654 8.32984 8.6475 8.32984 8.47872ZM5.83788 7.98232C5.55988 7.98232 5.36129 8.18086 5.36129 8.47872C5.36129 8.77658 5.55983 8.97512 5.84779 8.97512C5.98677 8.97512 6.12579 8.93541 6.23501 8.84609L6.1357 8.69716C6.05628 8.75673 5.95701 8.79643 5.85774 8.79643C5.72866 8.79643 5.59959 8.73687 5.56978 8.56804H6.27472V8.48867C6.28467 8.18086 6.10594 7.98232 5.83784 7.98232H5.83788ZM5.83788 8.16101C5.96691 8.16101 6.05632 8.24047 6.07613 8.3894H5.57973C5.59959 8.26032 5.68895 8.16101 5.83788 8.16101ZM11.0105 8.47872V7.6249H10.802V8.1213C10.7325 8.03198 10.6332 7.98232 10.5041 7.98232C10.2361 7.98232 10.0276 8.19081 10.0276 8.47872C10.0276 8.76663 10.2361 8.97512 10.5041 8.97512C10.6432 8.97512 10.7424 8.92551 10.802 8.83614V8.95527H11.0105V8.47872ZM10.246 8.47872C10.246 8.30994 10.3552 8.17096 10.5339 8.17096C10.7027 8.17096 10.8218 8.30003 10.8218 8.47872C10.8218 8.6475 10.7027 8.78649 10.5339 8.78649C10.3552 8.77654 10.246 8.6475 10.246 8.47872ZM3.27636 8.47872V8.00217H3.06787V8.1213C2.99836 8.03198 2.89909 7.98232 2.77001 7.98232C2.50196 7.98232 2.29346 8.19081 2.29346 8.47872C2.29346 8.76663 2.50196 8.97512 2.77001 8.97512C2.90904 8.97512 3.00831 8.92551 3.06787 8.83614V8.95527H3.27636V8.47872ZM2.50196 8.47872C2.50196 8.30994 2.61118 8.17096 2.78987 8.17096C2.95865 8.17096 3.07782 8.30003 3.07782 8.47872C3.07782 8.6475 2.95865 8.78649 2.78987 8.78649C2.61118 8.77654 2.50196 8.6475 2.50196 8.47872Z" fill="black"/>
<path d="M4.21948 0.764458H7.34687V6.38385H4.21948V0.764458Z" fill="#FF5F00"/>
<path d="M4.4181 3.57418C4.4181 2.43244 4.95421 1.41974 5.77823 0.764457C5.17265 0.28791 4.40819 0 3.57422 0C1.59843 0 0 1.59843 0 3.57418C0 5.54988 1.59843 7.14835 3.57418 7.14835C4.40815 7.14835 5.1726 6.86044 5.77823 6.38385C4.95421 5.73852 4.4181 4.71591 4.4181 3.57418Z" fill="#EB001B"/>
<path d="M11.5664 3.57418C11.5664 5.54988 9.96801 7.14835 7.99226 7.14835C7.15829 7.14835 6.39383 6.86044 5.78821 6.38385C6.62218 5.72861 7.14838 4.71591 7.14838 3.57418C7.14838 2.43244 6.61223 1.41974 5.78821 0.764457C6.39379 0.28791 7.15829 0 7.99226 0C9.96801 0 11.5665 1.60838 11.5665 3.57418H11.5664Z" fill="#F79E1B"/>
</g>
<defs>
<clipPath id="clip0_422_167">
<rect width="11.5779" height="9" fill="white"/>
</clipPath>
</defs>
</svg>
