<?xml version="1.0"?><svg fill="#000000" xmlns="http://www.w3.org/2000/svg"  viewBox="0 0 30 30" width="90px" height="90px">    <path d="M 4 5 C 2.895 5 2 5.895 2 7 L 2 11.048828 L 5.0214844 11.048828 C 5.8464844 11.048828 6.1621094 11.822266 6.1621094 11.822266 L 6.8632812 15.384766 C 6.0332812 12.710766 2.834 11.414187 2 11.117188 L 2 23 C 2 24.105 2.895 25 4 25 L 26 25 C 27.105 25 28 24.105 28 23 L 28 7 C 28 5.895 27.105 5 26 5 L 4 5 z M 18.369141 10.871094 C 19.335141 10.871094 20.322266 11.257812 20.322266 11.257812 L 19.984375 12.992188 C 19.984375 12.992188 19.214062 12.486328 18.539062 12.486328 C 17.503062 12.486328 17.140625 12.824297 17.140625 13.279297 C 17.140625 14.170297 20.033203 14.3145 20.033203 16.3125 C 20.032203 17.9725 17.958797 19.128906 16.466797 19.128906 C 14.972797 19.128906 14.201172 18.673828 14.201172 18.673828 L 14.5625 17.009766 C 14.5625 17.009766 15.358453 17.466797 16.564453 17.466797 C 17.768453 17.466797 17.935547 16.961141 17.935547 16.744141 C 17.935547 15.469141 15.046875 15.809125 15.046875 13.328125 C 15.046875 11.956125 16.178141 10.871094 18.369141 10.871094 z M 9.0214844 11.029297 L 11.251953 11.029297 L 8.0800781 18.882812 L 5.7832031 18.882812 L 4.1113281 12.523438 C 4.1113281 12.523438 5.8729844 13.415609 6.9589844 15.849609 C 7.0059844 16.145609 7.1152344 16.621094 7.1152344 16.621094 L 9.0214844 11.029297 z M 12.074219 11.029297 L 14.183594 11.029297 L 12.923828 18.882812 L 10.839844 18.882812 L 12.074219 11.029297 z M 23.398438 11.029297 L 25.589844 11.029297 L 27.203125 18.882812 L 25.306641 18.882812 L 25.082031 17.763672 L 22.474609 17.763672 L 22.046875 18.882812 L 19.976562 18.882812 L 23.398438 11.029297 z M 24.185547 13.294922 L 23.052734 16.261719 L 24.779297 16.261719 L 24.185547 13.294922 z"/></svg>