<svg width="23" height="23" viewBox="0 0 23 23" fill="none" xmlns="http://www.w3.org/2000/svg">
<path d="M11.6484 2.02461L20.1234 5.41459C20.453 5.54642 20.7166 5.94191 20.7166 6.29033V9.41667C20.7166 9.93459 20.2929 10.3583 19.775 10.3583H2.82497C2.30705 10.3583 1.8833 9.93459 1.8833 9.41667V6.29033C1.8833 5.94191 2.14697 5.54642 2.47656 5.41459L10.9516 2.02461C11.1399 1.94928 11.46 1.94928 11.6484 2.02461Z" stroke="#8E8E93" stroke-width="1.5" stroke-miterlimit="10" stroke-linecap="round" stroke-linejoin="round"/>
<path d="M20.7166 20.7167H1.8833V17.8917C1.8833 17.3737 2.30705 16.95 2.82497 16.95H19.775C20.2929 16.95 20.7166 17.3737 20.7166 17.8917V20.7167Z" stroke="#8E8E93" stroke-width="1.5" stroke-miterlimit="10" stroke-linecap="round" stroke-linejoin="round"/>
<path d="M3.76672 16.95V10.3583" stroke="#8E8E93" stroke-width="1.5" stroke-miterlimit="10" stroke-linecap="round" stroke-linejoin="round"/>
<path d="M7.53333 16.95V10.3583" stroke="#8E8E93" stroke-width="1.5" stroke-miterlimit="10" stroke-linecap="round" stroke-linejoin="round"/>
<path d="M11.3 16.95V10.3583" stroke="#8E8E93" stroke-width="1.5" stroke-miterlimit="10" stroke-linecap="round" stroke-linejoin="round"/>
<path d="M15.0667 16.95V10.3583" stroke="#8E8E93" stroke-width="1.5" stroke-miterlimit="10" stroke-linecap="round" stroke-linejoin="round"/>
<path d="M18.8334 16.95V10.3583" stroke="#8E8E93" stroke-width="1.5" stroke-miterlimit="10" stroke-linecap="round" stroke-linejoin="round"/>
<path d="M0.94165 20.7167H21.6583" stroke="#8E8E93" stroke-width="1.5" stroke-miterlimit="10" stroke-linecap="round" stroke-linejoin="round"/>
<path d="M11.3 8.00417C12.0801 8.00417 12.7125 7.37177 12.7125 6.59167C12.7125 5.81157 12.0801 5.17917 11.3 5.17917C10.5198 5.17917 9.88745 5.81157 9.88745 6.59167C9.88745 7.37177 10.5198 8.00417 11.3 8.00417Z" stroke="#8E8E93" stroke-width="1.5" stroke-miterlimit="10" stroke-linecap="round" stroke-linejoin="round"/>
</svg>
